<svg xmlns="http://www.w3.org/2000/svg" width="2000" height="2000" viewBox="0 0 2000 2000">
  <defs>
    <style>
      .cls-1 {
        fill: #fff;
        fill-rule: evenodd;
      }
    </style>
  </defs>
  <path id="angel_orellana_1" data-name="angel orellana 1" class="cls-1" d="M681.225,392L131,1611q219.678-115.44,412.669-252.21c183.718-130.4,347.8-270.73,581.971-262.71,113.41,3.88,219.49,49.35,222.2,42.03,2.02-5.44-48.7-33.5-105.81-52.54-215.27-71.79-461.635,10.69-698.361,178.65l272.467-609.5L988.081,1033.03a481.947,481.947,0,0,1,253.949,10.5L945.756,392H681.225Zm63.488,882.72,137.556-84.06c73.167,161.63,240.621,258,412.671,241.69,158.26-14.99,300.76-123.7,349.18-283.73,48.87-161.516-11.04-332.727-137.56-430.853-108.32-84.012-262.44-104.77-391.5-63.051L1040.99,507.6c177.4-51.275,371.45-37.29,529.06,63.052,90.47,57.595,159.03,134.783,201.04,220.681,69.79,142.684,64.04,297.672,21.17,420.342-67.78,193.93-234.65,327.45-412.67,367.8-94.48,21.42-193.56,17-285.7-10.5-82.77-24.71-200.967-99.37-264.527-157.63Z"/>
</svg>
